<?xml version="1.0" encoding="UTF-8"?> <svg xmlns="http://www.w3.org/2000/svg" viewBox="0 0 2880 1620"><defs><style>.cls-1{isolation:isolate;}.cls-2{fill:#fff;}.cls-3{fill:#ecf9fe;}.cls-4{fill:#c5eafb;}.cls-5{fill:#eceded;}.cls-6{fill:#10344a;}.cls-7{fill:#80c9ed;}.cls-8{fill:#67b7de;}.cls-9{fill:#d1d3d4;}.cls-10{fill:#e6e7e8;mix-blend-mode:multiply;}.cls-11{fill:#f1f2f2;}.cls-12{fill:#f7a705;}.cls-13{fill:#e2e3e3;}.cls-14{fill:#2f86b5;}.cls-15{fill:#333;mix-blend-mode:screen;}.cls-16{fill:#276f96;}.cls-17{fill:#63accf;}.cls-18{fill:#ffd3cf;}.cls-19{fill:#ffb8b0;}.cls-20{fill:#0f3447;}.cls-21{fill:#1b6085;}.cls-22{fill:#9bd5f2;}.cls-23{fill:#154965;}.cls-24{fill:#154a66;}.cls-25{fill:#2176a3;}.cls-26{fill:#ff4f3b;}.cls-27{fill:#1a5c80;}.cls-28{fill:#f5b9b5;}.cls-29{fill:#bcbec0;}.cls-30{fill:#d7d8d9;}</style></defs><g class="cls-1"><g id="Layer_2" data-name="Layer 2"><g id="Layer_1-2" data-name="Layer 1"><rect class="cls-2" width="2880" height="1620"></rect><path class="cls-3" d="M2435,484.61c-55,3.92-112.5,141.87-39,247s171,47.1,192-30.72S2552,476.25,2435,484.61Z"></path><path class="cls-3" d="M1085.87,162c-1.61,28.43,65.27,67,124,36.25s35.39-84.51-3.1-100.39S1089.29,101.51,1085.87,162Z"></path><path class="cls-3" d="M406.18,536C367,522.42,297,564.8,294.14,649.36,291.38,731.08,348.8,759.09,398,720.71,439,688.7,476.79,560.54,406.18,536Z"></path><path class="cls-3" d="M1927.07,1424.4s442.73,28.22,557.86-222.17c111.51-242.52-215.82-433.33-163.59-667,74.47-333.2-134.22-436.49-505.9-337.1s-436.18,106.52-436.18,106.52l-112.67-53.47-103.87-3.8s-253.7-128-487-58.85C465.24,250.87,491.91,452,491.91,452S533,640.72,368.53,894.82C236.06,1099.53,213.81,1536.18,1215.22,1408L1509.68,1489Z"></path><path class="cls-4" d="M1153,1188.43C983.61,1086,939.43,990.85,888.26,880.64c-13.19-28.41-26.83-57.79-43.19-88.61-37.43-70.51-77.46-124.26-122.36-164.31-45.11-40.24-91.77-63.67-131.46-81.28-89.56-39.73-120.95-89.52-121.26-90l-7.08,4.33c1.3,2.12,32.82,52.39,125,93.28C686,597.54,762,653.19,837.74,795.92c16.26,30.62,29.85,59.9,43,88.21,51.74,111.44,96.42,207.69,268,311.4Z"></path><path class="cls-4" d="M398.5,371.48c-25.3,19.12-6,67.1,23.84,100.31,28.38,31.53,61.45,39.76,78.35,28.65,17.33-11.4,23.17-46.25-9.47-89.1C454.22,362.77,415.89,358.33,398.5,371.48Z"></path><path class="cls-4" d="M368.54,579.24c.51,31.7,50.61,44.46,95,39.93,42.2-4.31,68.36-26.15,69.35-46.35,1-20.72-23.66-46-77.51-44.92C394.38,529.11,368.19,557.43,368.54,579.24Z"></path><path class="cls-4" d="M596.66,371.16c-30.37,9.11-29,60.79-12.61,102.33,15.6,39.44,43.72,58.69,63.43,54.16,20.22-4.64,37.85-35.26,22.19-86.8C651.93,382.42,617.55,364.91,596.66,371.16Z"></path><path class="cls-4" d="M521,694c4.26,31.41,55.53,38.15,99.11,28.38,41.39-9.28,64.78-34.07,63.37-54.24-1.44-20.7-28.95-42.87-82.29-35.42C540.76,641.15,518.1,672.38,521,694Z"></path><path class="cls-4" d="M847.2,456.65c-26.52-17.38-65.22,16.91-86.42,56.23-20.13,37.33-16.75,71.24-.6,83.41,16.57,12.48,51.35,6.25,80.71-38.91C874.16,506.19,865.44,468.6,847.2,456.65Z"></path><path class="cls-4" d="M630.93,816c4.26,31.42,55.53,38.15,99.11,28.38,41.4-9.28,64.78-34.07,63.38-54.24-1.44-20.7-29-42.87-82.3-35.42C650.65,763.12,628,794.35,630.93,816Z"></path><path class="cls-4" d="M977.43,639.4c-18.36-25.84-66.89-8-101,20.87-32.35,27.43-41.56,60.24-31,77.46,10.88,17.67,45.54,24.53,89.33-6.82C984.5,695.36,990.06,657.18,977.43,639.4Z"></path><path class="cls-4" d="M746.46,1039.56c21.15,23.63,67.37.46,98-32.06C873.52,976.61,879,943,866.51,927.05c-12.79-16.33-48-19.26-88,16.81C733.17,984.75,731.92,1023.31,746.46,1039.56Z"></path><path class="cls-4" d="M1075,823.07c-12.45-29.16-63.67-22-103.1-1.05-37.44,19.93-53.41,50-46.7,69.12,6.89,19.57,39.3,33.64,88.75,12.3C1070,879.25,1083.56,843.13,1075,823.07Z"></path><path class="cls-4" d="M863.91,1181.63c21.34,18.59,59.72-7,83.24-39.23,22.34-30.57,23.47-61,10.66-73.68-13.14-13-44.65-11.76-76.09,24.61C846.08,1134.56,849.24,1168.85,863.91,1181.63Z"></path><path class="cls-4" d="M1149.4,1016c-.46-28.3-45.18-39.69-84.84-35.64-37.66,3.85-61,23.34-61.9,41.37-.91,18.5,21.13,41.06,69.19,40.1C1126.34,1060.71,1149.72,1035.43,1149.4,1016Z"></path><rect class="cls-4" x="529.02" y="551.4" width="54" height="8.3" transform="translate(-153.4 217.16) rotate(-19.47)"></rect><rect class="cls-4" x="633.87" y="526.23" width="8.3" height="47.58"></rect><polygon class="cls-4" points="770.58 599.53 763.65 594.96 732.69 641.91 679.76 661.58 682.65 669.35 738.13 648.75 770.58 599.53"></polygon><polygon class="cls-4" points="852.4 741.37 844.97 737.68 828.13 771.59 790.51 783.27 792.98 791.2 833.98 778.46 852.4 741.37"></polygon><polygon class="cls-4" points="934.15 895.48 927.8 890.13 902.1 920.61 864.69 926.89 866.06 935.08 906.48 928.29 934.15 895.48"></polygon><polygon class="cls-4" points="1006.45 1032.39 1004.85 1024.25 966.6 1031.75 950.5 1067.41 958.06 1070.83 972.4 1039.07 1006.45 1032.39"></polygon><path class="cls-4" d="M2071.32,1250.21c72.58-33.25,128.57-70.07,171.18-112.55,42.8-42.68,68.91-87.89,88.81-126.49,44.89-87.09,96.44-115.52,97-115.8l-3.91-7.31c-2.2,1.17-54.22,29.7-100.42,119.31-49.16,95.36-109.15,168-256.07,235.3Z"></path><path class="cls-4" d="M2517.22,829c-17.6-26.36-66.63-9.94-101.52,17.95-33.13,26.48-43.28,59-33.17,76.53,10.36,18,44.81,25.84,89.49-4.24C2522.67,885.1,2529.34,847.1,2517.22,829Z"></path><path class="cls-4" d="M2311.57,786.92c-31.67-1.34-47.34,47.93-45.41,92.56,1.84,42.38,22.11,69.77,42.22,71.94,20.63,2.23,47.3-20.94,49.38-74.76C2360.11,815.65,2333.36,787.84,2311.57,786.92Z"></path><path class="cls-4" d="M2506,1026.81c-7.31-30.85-59-32.55-101.41-18.57-40.29,13.27-61.14,40.22-57.78,60.16,3.46,20.46,33,39.84,85.37,27.22C2491.5,1081.32,2511,1048,2506,1026.81Z"></path><path class="cls-4" d="M2188.12,932.46c-31.62,2.42-41.33,53.21-34.12,97.29,6.84,41.86,30.22,66.65,50.45,66.43,20.74-.23,44.48-26.4,40.16-80.09C2239.72,955.23,2209.86,930.79,2188.12,932.46Z"></path><path class="cls-4" d="M2406,1271.92c18.9-25.46-13.07-66.09-51.08-89.55-36.1-22.28-70.15-20.88-83.24-5.47-13.43,15.82-9.23,50.9,34.14,82.84C2355,1296,2393,1289.43,2406,1271.92Z"></path><rect class="cls-4" x="2320.13" y="948.47" width="8.3" height="54.01" transform="translate(-179.49 683.98) rotate(-16.13)"></rect><rect class="cls-4" x="2320.85" y="1033.85" width="8.3" height="47.58" transform="translate(1131.56 3315.95) rotate(-86.61)"></rect><polygon class="cls-4" points="2267.84 1187.09 2272.81 1180.44 2227.74 1146.8 2211.2 1092.81 2203.27 1095.23 2220.6 1151.82 2267.84 1187.09"></polygon><path class="cls-5" d="M1585.24,1383.16c-263.34-2.74-888.75,5.41-888.53,47,.22,41.94,524.2,38.71,524.2,38.71s-157.73,6.63-157.73,35.93,406.77,34,817.83-5.67c242-23.35,155.66-53.61,155.66-53.61s103.75-4.83,103.81-20.53C2140.55,1401.8,1878.06,1386.2,1585.24,1383.16Z"></path><path class="cls-6" d="M741.35,1399c-25.8-16.5-44.1-41.63-52.94-72.71-12.29-43.21-5.49-95.93,18.65-144.66,25.5-51.49,68.14-94.51,120-121.16a18,18,0,1,1,16.45,32c-99.27,51-139.84,155.91-120.49,223.93,14,49.37,57.09,73.72,121.2,68.58,41.63-3.34,192.93-72.76,738.57-500.15,311.87-244.29,604.73-489.95,607.65-492.4A18,18,0,1,1,2213.64,420c-2.92,2.45-296.19,248.45-608.53,493.11C1421.52,1057,1267.32,1172.2,1146.77,1255.7c-155.12,107.44-253.12,161.48-299.63,165.21-42,3.37-77.56-4-105.56-21.78Z"></path><path class="cls-7" d="M2095.21,498.45c-73.33-89.74-405.29-459.13-932.49-251.1,57.27,27.56,305.32,126.28,268,402.76,91.43-2.84,334.1,159.22,315.26,436.8,97.46,24.68,255.18,143.39,249.93,334.91C1995.93,1421.82,2417.25,1060,2095.21,498.45Z"></path><path class="cls-8" d="M2099.81,506.61c-1.53-2.72-3-5.43-4.6-8.16-3.25-4-7-8.5-11.25-13.48-49.71-35.7-105.38-56.6-165.72-62.18-57.91-5.37-120.24,3.29-185.28,25.74-145.24,50.12-256.74,150.38-301.39,195.06-.26,2.16-.53,4.33-.83,6.52,1.81-.06,3.68,0,5.61,0,43.61-43.8,154.56-144.13,299.22-194,137.8-47.55,257.51-32.6,355.79,44.42,23.8,296.64-151.37,454.94-345.06,581.42q-.13,2.49-.3,5c1.71.43,3.44.9,5.18,1.39C1945.27,961.49,2120.77,802.81,2099.81,506.61Z"></path><polygon class="cls-9" points="1088.01 773.14 1133.41 1422.65 1576.66 1422.19 1598.22 761.91 1088.01 773.14"></polygon><polygon class="cls-10" points="1550.66 1396.62 1566.64 1397.77 1578.82 787.46 1545.27 813.67 1550.66 1396.62"></polygon><polygon class="cls-2" points="1112.38 796.24 1578.82 787.46 1555.61 1401.44 1156.65 1399.8 1112.38 796.24"></polygon><polygon class="cls-11" points="1181.47 1225.6 1274.79 1222.67 1276.2 1154.56 1177.03 1160.33 1181.47 1225.6"></polygon><polygon class="cls-11" points="1171.3 1075.98 1175.13 1132.34 1276.65 1132.95 1277.98 1068.51 1171.3 1075.98"></polygon><polygon class="cls-11" points="1280.56 944.29 1282.37 857.05 1156.51 858.44 1162.6 947.99 1280.56 944.29"></polygon><polygon class="cls-11" points="1164.39 974.36 1169.52 1049.86 1278.35 1050.98 1280.18 962.63 1164.39 974.36"></polygon><polygon class="cls-11" points="1182.71 1243.95 1188.34 1320.78 1272.8 1318.16 1274.89 1244.03 1182.71 1243.95"></polygon><path class="cls-10" d="M1515.63,814.61s-.21-23.47-12.33-50.61l-23.07.73-34,10.93L1506,800.72Z"></path><polygon class="cls-12" points="1170.1 897.24 1190.88 890.43 1215.86 918.02 1243.57 862.12 1268.78 862.12 1220.33 935.95 1170.1 897.24"></polygon><polygon class="cls-12" points="1170.1 1000.96 1190.88 994.15 1215.86 1021.75 1243.57 965.84 1268.78 965.84 1220.33 1039.67 1170.1 1000.96"></polygon><polygon class="cls-12" points="1170.1 1092.65 1190.88 1085.85 1215.86 1113.44 1243.57 1057.53 1268.78 1057.53 1220.33 1131.36 1170.1 1092.65"></polygon><polygon class="cls-12" points="1170.1 1179.39 1190.88 1172.58 1215.86 1200.18 1243.57 1144.27 1268.78 1144.27 1220.33 1218.1 1170.1 1179.39"></polygon><polygon class="cls-12" points="1170.1 1271.55 1190.88 1264.74 1215.86 1292.34 1243.57 1236.43 1268.78 1236.43 1220.33 1310.26 1170.1 1271.55"></polygon><polygon class="cls-13" points="1300.48 857.05 1300.48 879.79 1496.68 873.43 1496.68 857.05 1300.48 857.05"></polygon><polygon class="cls-13" points="1300.48 889.27 1300.48 912.01 1552.35 912.01 1552.35 895.01 1300.48 889.27"></polygon><polygon class="cls-13" points="1300.48 921.48 1300.48 944.22 1438.51 944.22 1438.51 926.29 1300.48 921.48"></polygon><polygon class="cls-13" points="1297.35 966.68 1297.35 987.62 1521.07 981.76 1521.07 966.68 1297.35 966.68"></polygon><polygon class="cls-13" points="1297.35 996.34 1297.35 1017.27 1472.28 1017.27 1472.28 1001.63 1297.35 996.34"></polygon><polygon class="cls-13" points="1297.35 1026 1297.35 1046.93 1504.81 1046.93 1504.81 1030.42 1297.35 1026"></polygon><polygon class="cls-13" points="1293.39 1080.77 1293.39 1101.7 1468.33 1101.7 1468.33 1086.06 1293.39 1080.77"></polygon><polygon class="cls-13" points="1293.39 1110.43 1293.39 1131.36 1545.27 1131.36 1545.27 1114.85 1293.39 1110.43"></polygon><polygon class="cls-13" points="1293.39 1154.56 1293.39 1175.49 1432.25 1175.49 1432.25 1159.85 1293.39 1154.56"></polygon><polygon class="cls-13" points="1293.39 1184.21 1293.39 1205.15 1504.81 1205.15 1504.81 1188.64 1293.39 1184.21"></polygon><polygon class="cls-13" points="1293.39 1296.92 1293.39 1317.86 1461.65 1317.86 1461.65 1301.35 1293.39 1296.92"></polygon><polygon class="cls-13" points="1293.39 1243.95 1293.39 1264.88 1487.92 1264.88 1487.92 1248.38 1293.39 1243.95"></polygon><path class="cls-10" d="M1199.93,770.67c-8.87,30.61-6.54,49.89-6.54,49.89l18.26-20.83,27.11-19.05V769.82Z"></path><path class="cls-14" d="M1345.31,606.08a66.37,66.37,0,1,0,68.42,64.25A66.36,66.36,0,0,0,1345.31,606.08Zm-2.56,102.42a33,33,0,1,1,31.94-34A33,33,0,0,1,1342.75,708.5Z"></path><path class="cls-14" d="M1193.39,820.56s28.77-104.75,155.24-108.72,167,102.77,167,102.77Z"></path><path class="cls-15" d="M1283.86,737.07l13.41,13.14A90.83,90.83,0,0,1,1331.8,724S1310.67,724.58,1283.86,737.07Z"></path><path class="cls-15" d="M1251,757.7c-15.53,12.62-31,30-43.94,53.79l62.74-2a143.19,143.19,0,0,1,15.2-41.18Z"></path><path class="cls-16" d="M1807.25,737.85s114.91,339.23,381.29,318.74c0,0,166.5-143.15-.12-490.43C2188.42,566.16,1966.73,522.47,1807.25,737.85Z"></path><path class="cls-15" d="M2188.54,1056.59s78.06-67.12,73.79-220.93c-270.8,38-403-98.33-429.45-129.67q-13,14.91-25.63,31.86s42,124.08,134.19,217.63c49.22,49.55,117.32,81.48,198.84,100.9A292.8,292.8,0,0,0,2188.54,1056.59Z"></path><path class="cls-2" d="M2193.16,1067.73l-3.74.29c-63.18,4.86-123.31-9.53-178.73-42.76-43.94-26.35-84.93-64.52-121.84-113.46-62.41-82.77-91.25-166.74-92.45-170.28l-1.92-5.67L1798,731c46-62.18,101.66-109.19,165.29-139.72a413.53,413.53,0,0,1,158.18-39.82c41.38-1.92,68,3.21,69.12,3.43l5.64,1.11,2.48,5.17c38.54,80.33,62.55,156.6,71.35,226.67,7.11,56.54,4.4,109.24-8,156.65-21.46,81.71-64.23,119.2-66,120.76Zm-373-328c7.52,20.07,36,90.76,87.37,158.71,78.72,104.17,171.6,153.6,276.11,147,9.12-9.19,40.22-44.19,56.71-108.48,17.82-69.47,21.75-188.15-59.66-360.43a326.27,326.27,0,0,0-58.88-2.12A390.64,390.64,0,0,0,1973.24,612C1914.68,640.07,1863.2,683.05,1820.14,739.76Z"></path><path class="cls-17" d="M1919.47,1025.38l3.9-5.29s-.08-.48-.21-1.4c-.9-6.52-4.12-34.76,2.82-62.81L1915.8,944.8c-13.16,22-41.19,83.31-2.73,160.45l10.85-22,16.42-13.33Z"></path><path class="cls-18" d="M1914.65,1292.91l-1.12,7,32.19,122.64,5.29-2s6.49-104.08-14.84-127.65-18.55-2-18.55-2Z"></path><path class="cls-12" d="M1951.13,1417.87s9.56,5.38,2.23,37.38h-3.8l-.93-18.69s-3.43,5-7.42,18.69h-30.43s2.69-6.59,16.33-8.9c0,0,5.36-18,17.51-28Z"></path><path class="cls-18" d="M1951.13,1417.87c-1.94-2.7-4-3.56-6.51.5-12.15,10-17.51,28-17.51,28l5.65.92S1942,1424.73,1951.13,1417.87Z"></path><path class="cls-18" d="M1961.68,1276.12l-4.64,6.68,37.63,139.8,5.28-2s1.94-100.65-14.84-127.65c-15.27-24.58-18.52-21-18.52-21Z"></path><path class="cls-12" d="M2000.08,1417.87s9.55,5.38,2.22,37.38h-3.8l-.93-18.69s-3.43,5-7.42,18.69h-30.43s2.69-6.59,16.33-8.9c0,0,5.36-18,17.52-28Z"></path><path class="cls-18" d="M2000.08,1417.87c-2-3.34-4.23-2.77-6.51.5-12.16,10-17.52,28-17.52,28l5.66.92S1991,1424.73,2000.08,1417.87Z"></path><path class="cls-19" d="M1981.36,1287.07c-7.83-11.76-11.72-14.63-13.48-15.19l-2.15.81-4,3.43-4.64,6.68,4.6,17.11A43.08,43.08,0,0,1,1981.36,1287.07Z"></path><path class="cls-19" d="M1936.17,1292.91a72.25,72.25,0,0,0-7.37-7.21c-3.83.63-8.2,1.38-11.28,2a20,20,0,0,0,.09,3.16l-3,2-1.12,7,1.94,7.38c6.5-3.86,15.2-8.14,24-9.8A27,27,0,0,0,1936.17,1292.91Z"></path><path class="cls-20" d="M1915.46,1007.44S1906.67,992,1917.8,982s21.89,3,34.51,5.75,28.2,1.6,31.91,22.32-3,20.35,8,42.8-6.31,33-2.6,46.2,13,27.45-.93,37.1-36-5-36-5l-.93-35.25,5.75-26.53-7.31-20-.85-32-22.08-18.65S1918.91,1003.5,1915.46,1007.44Z"></path><path class="cls-21" d="M1918.17,1169.09l-9.27,4.16s-20,72,2.22,126.71l76.25-18.74s16.89-89.42-23.93-114.47-30.32-1.3-30.32-1.3l-14.76,4.64Z"></path><path class="cls-22" d="M1926.89,1052.47v24.3L1895,1108.13s1.34,18.55,18.11,20.59c0,0,.26,23.19-4.19,44.53a60.07,60.07,0,0,0,54.54-6.5s-1.67-24.49,3.34-47.31,4.45-57.7,4.45-57.7l-31.17-17.81-13.35,4.46Z"></path><path class="cls-18" d="M1967.89,933l-3.4-4s-7.08-12.81-7.13-26.73,7.75,9.47,7.75,9.47,1.67-35.49,6.54-36.18,2.51,9.46,2.51,9.46,3.06-12.38,5.84-12.11.7,16.29.7,16.29S1983.62,879,1986,880s-3.06,17.67-3.06,17.67,2.23-8.9,5.57-7.51-4,24.77-12.25,36.18l-2.9,3.06Z"></path><path class="cls-18" d="M1949.51,1049.33l-11.15-4.83-11.65,3.89.18,4.08v24.3l-22.19,21.81c1.89,3,6.72,7.93,16.25,1.94,13-8.16,27.65-35.25,27.65-35.25Z"></path><path class="cls-19" d="M1948.91,1049.07l-10.55-4.57-11.65,3.89.18,4.08v17.47C1933.51,1066.47,1943.55,1059.77,1948.91,1049.07Z"></path><path class="cls-18" d="M1931.16,997.18s-20.78,5.57-29.31,34.51l7.42,1.85s-10.39,20,11.5,23.75,36.73-15.58,36.73-15.58l-2.22-36s-14.47-6.68-14.84-8.53S1931.16,997.18,1931.16,997.18Z"></path><path class="cls-20" d="M1927.26,995.51v3.24s-8.14,17,11,28.31l3.55,13c-4.83,11.91-4,21,6.84,25.16l24.05-23.25-10-38.9-17.44-8.54h-12.8Z"></path><path class="cls-18" d="M1938.21,1027.06s3.52-6.69,7.79-2.24-3.34,21.15-12.24,16.33-2.79-9.65-2.79-9.65l4.54-2.66Z"></path><path class="cls-22" d="M1962.7,929.37l13.54-3.06s44.31,90.55-6.92,177l-29-17.59,8.26-20.5S1983.66,1017.31,1962.7,929.37Z"></path><path class="cls-23" d="M993.58,1455.25a22.85,22.85,0,0,1,6.34-10.56h5.37s15-1.34,26.11,10.56Z"></path><polygon class="cls-18" points="1113.18 1429.33 1115.87 1431.64 1119.13 1447.38 1125.47 1447.38 1122.59 1427.8 1116.06 1427.8 1113.18 1429.33"></polygon><path class="cls-21" d="M1087.19,1187l-2.23,4.17s32.26,124.11,41.47,247.36h-13s-55-178.25-65.37-205.89,19.59-27.07,19.59-27.07l-4.36-23.33Z"></path><path class="cls-24" d="M1064,1280.64l7.78-65.83-17.55,35.71C1057,1258.86,1060.35,1269.16,1064,1280.64Z"></path><polygon class="cls-18" points="1001.17 1433.08 999.92 1444.69 1005.29 1444.69 1007.21 1431.64 1001.17 1433.08"></polygon><path class="cls-21" d="M1031.11,1189.57l-8.34,9.43s-22.18,95.57-24.77,239.55h9.79s51.42-192.51,71.41-232.68l-13.53-16.3Z"></path><path class="cls-25" d="M1051,1057.72s-10.72-2-12.56-2.16-12.63.29-12.63.29-74.63,25.05-107.27,97.23c0,0,19.79,38,97,45.69l.48-6.58s-34.65-21.33-42.2-48.52c0,0,6.46-12.08,25.15-23.22,3-1.78,14-13.25,14-13.25l13.63-24-3.69-16.12Z"></path><path class="cls-25" d="M989.94,1108.54l9,11.91s24.95,45.69,20.78,78.8c0,0,42.19-3.45,70.12-6.91,0,0,.29-73.43,8.93-110,0,0-18.2-12.65-36.89-18.42l-4.87,18.42-22.75,12.38-20.73-4.89-15.7,11.8Z"></path><path class="cls-2" d="M1029.82,1052.53l-4,3.32s24.19,46.93,38.15,82.21c0,0-4.39-58-13-80.34l-14.88-6.34h-3.83Z"></path><polygon class="cls-26" points="1033.42 1058.15 1025.79 1055.85 1047.74 1076 1051.74 1056.34 1037.45 1057.29 1033.42 1058.15"></polygon><path class="cls-26" d="M1058.73,1092.19,1045.94,1069l1.64,31.56c5.74,12.34,11.64,25.61,16.36,37.55C1063.94,1138.06,1062.19,1114.89,1058.73,1092.19Z"></path><path class="cls-27" d="M1050.76,1055.85l20.24,10.07-10.12,7.78,15,9.65-12,54.71S1055.26,1074.45,1050.76,1055.85Z"></path><path class="cls-18" d="M1016,1192.19l12.78-6,11.88,7.88s4.84,13.13,3.43,14.32-2.11-.59-2.11-.59,1.31,2.62.35,3.46-3.1-2.39-3.1-2.39,1.08,3.34-.24,3.46-1.85-3.82-1.85-3.82-1.25,3.58-2.33,1.91-5.25-3.82-6-11.16a19.1,19.1,0,0,1-13.26-.48Z"></path><path class="cls-18" d="M1048.54,1037.56l2.44,20.16s1.3,5.32-6.91,6.48-18.28-8.35-18.28-8.35l1.69-29.23,15.3-1.3v2.45Z"></path><path class="cls-28" d="M1026.78,1038.7c3.86,5.25,11.12,11.91,23.62,14.18l-1.76-14.44c-4.18-2.13-7.45-3.62-7.45-3.62l-13.77-7.29Z"></path><path class="cls-18" d="M1058.18,979.53s13.82,5.76,17.57,35.71l-8.78,2s1.29,20.44-9.08,24.48-25.34,2.3-35.13-19.3,7.2-36.28,8.35-36.57,20.74-6.34,20.74-6.34Z"></path><path class="cls-20" d="M1067.47,989s11.16-5.54,11.3-16.91-4.61-14.11-9.5-11.95-7.64,6.91-21.53,6-37.36-5.32-46.72,15.41,4.47,35.28,9.65,38.73,6.19,19.58,15.12,19.87,11.66-11.66,9.07-21.88l3.45-7.49-.57-2.59s11.23-1.73,15.69-9.51,4.33-12.52,9.08-16A73.51,73.51,0,0,1,1067.47,989Z"></path><path class="cls-18" d="M1037.74,1008.19a6.17,6.17,0,0,0-.26-.71c-.64-1.52-2.61-4.81-7.23-2.89-5.9,2.45-2.16,21,9.07,17.13s1.44-10.22,1.44-10.22Z"></path><path class="cls-27" d="M1025.91,1054.78,1002,1065.35l17.71,13.73-10.8,18.72,55,40.26C1054.74,1115.13,1041.05,1086,1025.91,1054.78Z"></path><path class="cls-23" d="M1112.31,1455.25a22.77,22.77,0,0,1,6.33-10.56H1124a34.3,34.3,0,0,1,26.1,10.56Z"></path><polygon class="cls-25" points="1087.23 1103.5 1098.79 1082.34 1110.11 1089.33 1113.95 1144.27 1081.61 1127.14 1084.42 1111.99 1087.23 1103.5"></polygon><path class="cls-29" d="M2112.71,276.28a14.84,14.84,0,1,0-12.05-17.18A14.83,14.83,0,0,0,2112.71,276.28Z"></path><path class="cls-2" d="M2125.57,265.09a14.84,14.84,0,1,0-18.76,9.38A14.82,14.82,0,0,0,2125.57,265.09Z"></path><path class="cls-30" d="M2105.32,273.89c.48.21,1,.41,1.49.58a14.1,14.1,0,0,0,1.54.43l4.66-14,4.67-14c-.48-.21-1-.41-1.49-.58a14.1,14.1,0,0,0-1.54-.43l-4.67,14Z"></path><path class="cls-18" d="M1551,1262.45l4.61,32.82s-10.56,11.33-9.41,34.75,24,98.68,24,98.68h6.72s-.2-129.78,4.6-172.21-20.35,1-20.35,1Z"></path><path class="cls-18" d="M1593,1262.45l4.61,32.82s-10.56,11.33-9.41,34.75,24,98.68,24,98.68h6.72s-.19-129.78,4.61-172.21-20.35,1-20.35,1Z"></path><path class="cls-12" d="M1612.15,1428.72a12.59,12.59,0,0,0-3.29,9.63c.3,5.84,3.68,16.9,3.68,16.9h1.59a97.69,97.69,0,0,1,.74-13.61,106.43,106.43,0,0,1,5.49,13.61h17.37s-2-5.23-9.59-7c0,0-1.13-11.28-9.34-19.49Z"></path><path class="cls-18" d="M1628.14,1448.21s-1.13-11.28-9.34-19.49c-2.83-2-5.08-2.12-6.65,0C1612.15,1428.72,1620.62,1448.12,1628.14,1448.21Z"></path><path class="cls-12" d="M1570.17,1428.72a12.61,12.61,0,0,0-3.28,9.63c.3,5.84,3.67,16.9,3.67,16.9h1.6a98.6,98.6,0,0,1,.73-13.61,106.43,106.43,0,0,1,5.49,13.61h17.37s-2-5.23-9.59-7c0,0-1.12-11.28-9.33-19.49Z"></path><path class="cls-18" d="M1586.16,1448.21s-1.12-11.28-9.33-19.49c-2.24-2-4.46-2.09-6.66,0C1570.17,1428.72,1578.64,1448.12,1586.16,1448.21Z"></path><path class="cls-21" d="M1585.91,1145.53l-7.06,9.12s-55.86,5.47-35.63,120.66h85.69s7.2-79.29-10.89-118.07l-26.71-13Z"></path><path class="cls-22" d="M1602.72,1070.57l3.35-1.59,17,6,18.28,24.91s2.31,14.11-15.33,20.16l-8,37.14-39.17-2.59L1564.74,1107l-10.51-24.76,21.46-11.52Z"></path><path class="cls-22" d="M1619.17,1079.06l3.89-4s35.85,25.92,46.07,32.83c0,0-14.24,35.79-50.67,47.34l-8.65-4.87,11.69-9.29s15.29-16.8,19.94-25.93l-11.62-7.83s-11.23-12.24-11.37-12.81S1619.17,1079.06,1619.17,1079.06Z"></path><path class="cls-18" d="M1569.49,1151.59l12.78-6,11.88,7.88s4.83,13.13,3.43,14.33-2.12-.6-2.12-.6,1.32,2.63.36,3.46-3.1-2.39-3.1-2.39,1.07,3.35-.24,3.47-1.85-3.83-1.85-3.83-1.25,3.59-2.33,1.92-5.25-3.82-6-11.17a19.13,19.13,0,0,1-13.27-.48Z"></path><polygon class="cls-2" points="1603.4 1068.91 1606.07 1068.98 1614.13 1109.15 1593.73 1073.13 1591.31 1068.19 1603.4 1068.91"></polygon><path class="cls-18" d="M1603.62,1043.86l2.45,25.12s1.15,9.65-15.7,3-16.17-14-16.17-14l17.83-17.64Z"></path><path class="cls-28" d="M1587.46,1044.85l2.68,6.21s4.39,5.55,15,8.23l-1.5-15.43-11.21-3.41-.54,0Z"></path><path class="cls-18" d="M1611.83,989.46s11.32,9.4,13.63,36.47l-6.82,1s3.94,15.74-9.31,20.93-32.06-9-32.06-9l-3.07-29.94,25.63-16.51Z"></path><path class="cls-22" d="M1530.48,1092l-25.78,22.75s12.84,35.28,64.3,43.88l1-8.17a89.94,89.94,0,0,1-24.72-29.42l35.14-16.85Z"></path><path class="cls-20" d="M1620.18,1002.61s8-6.82,5.28-19.49S1617,965.65,1600.4,971s-26.39-1.54-42.9,14.59-6.91,31.86-8.83,45.88-19.49,17.72-27.67,43.53c-6.15,19.37,5.08,20.37,1.15,31.23-4.06,11.21,2.71,21.71,12.89,22.91s19.17-5.2,24.54-15,7.9-20.1,23.07-28.35,14.88-25.83,8.2-39.51,0-24,0-24l3.31-5.85s16.77-2,23.84-18.45Z"></path><path class="cls-18" d="M1594.16,1016.43s-3.45-7.77-8.25-3.07-1.15,17.76,7.1,16.6,3.65-7.29,3.65-7.29Z"></path><path class="cls-18" d="M1624.31,1154.55c1.37,5,3.9,9.13-3.58,11.75s-2-4.2-2-4.2-6,5.33-7.06,3.24,6.78-7.51,6.78-7.51-8.8,3.63-8.69,1.12,9.56-6.26,9.56-6.26-8.29,2.13-7.8.25S1620.62,1141,1624.31,1154.55Z"></path><path class="cls-24" d="M1630.06,1254.83c-14.33,10-32.61,16.77-52,8.62-43.59-18.3-14-102.39-14-102.39-14.93,10.72-34,39.19-20.87,114.25h85.69S1629.65,1267.16,1630.06,1254.83Z"></path><path class="cls-28" d="M1552.77,1275.31l.87,6.15c7.7-1.59,18.18-1.88,25.72,5.14.19-4,.4-7.67.62-11.29Z"></path><path class="cls-28" d="M1622,1275.31h-27.19l.57,4.06c5.82-1,17.36-1.2,25.89,9.94.22-4.93.46-9.62.73-14Z"></path></g></g></g></svg> 